# xmcd CD database file
#
# Track frame offsets:
#	150
#	21675
#	41455
#
# Disc length: 838 seconds
#
# Revision: 0
# Processed by: cddbd v1.5PL3 Copyright (c) Steve Scherf et al.
# Submitted via: CDex 1.50
#
DISCID=21034403
DTITLE=TAM TAM - 友達でいいから
DYEAR=1900
DGENRE=J-POP
TTITLE0=友達でいいから
TTITLE1=うっふっふ
TTITLE2=友達でいいから(オリジナルカラオケ）
EXTD=
EXTT0=
EXTT1=
EXTT2=
PLAYORDER=
